<?xml version="1.0" encoding="utf-8"?>
<!-- Generator: Adobe Illustrator 16.0.5, SVG Export Plug-In . SVG Version: 6.00 Build 0)  -->
<!DOCTYPE svg PUBLIC "-//W3C//DTD SVG 1.1//EN" "http://www.w3.org/Graphics/SVG/1.1/DTD/svg11.dtd">
<svg version="1.1" id="Layer_1" xmlns="http://www.w3.org/2000/svg" xmlns:xlink="http://www.w3.org/1999/xlink" x="0px" y="0px"
	 width="402.023px" height="90.381px" viewBox="0 0 402.023 90.381" enable-background="new 0 0 402.023 90.381"
	 xml:space="preserve">
<g>
	<path d="M12.07,31.465v14.092h8.438c0.586,0,1.006,0.112,1.26,0.336c0.253,0.225,0.381,0.523,0.381,0.895
		c0,0.352-0.127,0.645-0.381,0.879c-0.254,0.234-0.674,0.352-1.26,0.352H6.299c-0.586,0-1.006-0.117-1.26-0.352
		c-0.254-0.234-0.381-0.527-0.381-0.879c0-0.371,0.127-0.67,0.381-0.895c0.253-0.224,0.674-0.336,1.26-0.336h3.311V16.201H6.299
		c-0.586,0-1.006-0.112-1.26-0.337c-0.254-0.224-0.381-0.522-0.381-0.894c0-0.371,0.146-0.684,0.439-0.938
		c0.215-0.195,0.615-0.293,1.201-0.293h27.1v8.467c0,0.586-0.117,1.006-0.352,1.26s-0.527,0.381-0.879,0.381
		c-0.371,0-0.674-0.127-0.908-0.381s-0.352-0.674-0.352-1.26v-6.006H12.07v12.803h8.818v-2.783c0-0.586,0.117-1.006,0.352-1.26
		s0.537-0.381,0.908-0.381c0.352,0,0.645,0.127,0.879,0.381s0.352,0.674,0.352,1.26v8.027c0,0.586-0.117,1.006-0.352,1.26
		s-0.527,0.381-0.879,0.381c-0.371,0-0.674-0.127-0.908-0.381s-0.352-0.674-0.352-1.26v-2.783H12.07z"/>
	<path d="M62.432,48.018v-3.604c-3.359,3.047-6.992,4.57-10.898,4.57c-2.402,0-4.229-0.655-5.479-1.963
		c-1.622-1.719-2.432-3.721-2.432-6.006V25.137h-3.311c-0.586,0-1.006-0.117-1.26-0.352c-0.254-0.234-0.381-0.537-0.381-0.908
		c0-0.352,0.127-0.645,0.381-0.879c0.253-0.234,0.674-0.352,1.26-0.352h5.771v18.369c0,1.602,0.508,2.92,1.523,3.955
		c1.015,1.035,2.285,1.553,3.809,1.553c4.003,0,7.676-1.836,11.016-5.508V25.137h-4.541c-0.586,0-1.006-0.117-1.26-0.352
		c-0.254-0.234-0.381-0.537-0.381-0.908c0-0.352,0.127-0.645,0.381-0.879c0.253-0.234,0.674-0.352,1.26-0.352h7.002v22.91h2.08
		c0.586,0,1.006,0.112,1.26,0.336c0.253,0.225,0.381,0.523,0.381,0.895c0,0.352-0.127,0.645-0.381,0.879
		c-0.254,0.234-0.674,0.352-1.26,0.352H62.432z"/>
	<path d="M100.283,25.137v-0.82c0-0.605,0.117-1.035,0.352-1.289s0.527-0.381,0.879-0.381c0.371,0,0.674,0.127,0.908,0.381
		s0.352,0.684,0.352,1.289v5.566c-0.02,0.605-0.142,1.035-0.366,1.289c-0.225,0.254-0.523,0.381-0.894,0.381
		c-0.333,0-0.611-0.113-0.835-0.338c-0.225-0.224-0.356-0.6-0.396-1.127c-0.117-1.387-1.03-2.705-2.739-3.955
		c-1.709-1.25-4.009-1.875-6.899-1.875c-3.652,0-6.426,1.143-8.32,3.428c-1.895,2.285-2.842,4.902-2.842,7.852
		c0,3.184,1.044,5.811,3.135,7.881c2.09,2.07,4.794,3.105,8.115,3.105c1.914,0,3.862-0.352,5.845-1.055
		c1.982-0.703,3.774-1.836,5.376-3.398c0.41-0.391,0.771-0.586,1.084-0.586c0.332,0,0.61,0.112,0.835,0.336
		c0.224,0.225,0.337,0.504,0.337,0.836c0,0.84-0.986,1.904-2.959,3.193c-3.184,2.09-6.729,3.135-10.635,3.135
		c-3.965,0-7.222-1.265-9.771-3.795c-2.549-2.529-3.823-5.736-3.823-9.623c0-3.965,1.304-7.256,3.911-9.873s5.893-3.926,9.858-3.926
		C94.56,21.768,97.724,22.891,100.283,25.137z"/>
	<path d="M121.025,37.061v10.957h-5.771c-0.586,0-1.006-0.117-1.26-0.352c-0.254-0.234-0.381-0.527-0.381-0.879
		c0-0.371,0.127-0.67,0.381-0.895c0.253-0.224,0.674-0.336,1.26-0.336h3.311V13.74h-3.311c-0.586,0-1.006-0.117-1.26-0.352
		c-0.254-0.234-0.381-0.537-0.381-0.908c0-0.352,0.127-0.645,0.381-0.879c0.253-0.234,0.674-0.352,1.26-0.352h5.771v22.676
		l10.459-8.789h-1.26c-0.586,0-1.006-0.117-1.26-0.352c-0.254-0.234-0.381-0.527-0.381-0.879c0-0.371,0.127-0.674,0.381-0.908
		c0.253-0.234,0.674-0.352,1.26-0.352h7.881c0.605,0,1.035,0.117,1.289,0.352c0.253,0.234,0.381,0.537,0.381,0.908
		c0,0.352-0.127,0.645-0.381,0.879c-0.254,0.234-0.684,0.352-1.289,0.352h-2.842l-9.609,8.027l12.158,12.393h2.842
		c0.605,0,1.035,0.112,1.289,0.336c0.253,0.225,0.381,0.523,0.381,0.895c0,0.352-0.127,0.645-0.381,0.879
		c-0.254,0.234-0.684,0.352-1.289,0.352h-7.969c-0.586,0-1.006-0.117-1.26-0.352c-0.254-0.234-0.381-0.527-0.381-0.879
		c0-0.371,0.127-0.67,0.381-0.895c0.253-0.224,0.674-0.336,1.26-0.336h1.729l-10.576-10.869L121.025,37.061z"/>
	<path d="M163.33,22.647v22.91h9.668c0.605,0,1.035,0.112,1.289,0.336c0.253,0.225,0.381,0.523,0.381,0.895
		c0,0.352-0.127,0.645-0.381,0.879c-0.254,0.234-0.684,0.352-1.289,0.352h-21.797c-0.586,0-1.006-0.117-1.26-0.352
		c-0.254-0.234-0.381-0.527-0.381-0.879c0-0.371,0.127-0.67,0.381-0.895c0.253-0.224,0.674-0.336,1.26-0.336h9.668v-20.42h-7.178
		c-0.586,0-1.011-0.117-1.274-0.352s-0.396-0.527-0.396-0.879c0-0.371,0.127-0.674,0.381-0.908c0.253-0.234,0.684-0.352,1.289-0.352
		H163.33z M163.242,10.02v6.357h-3.633V10.02H163.242z"/>
	<path d="M190.078,22.647v3.721c1.718-1.738,3.271-2.939,4.658-3.604c1.387-0.664,2.949-0.997,4.688-0.997
		c1.875,0,3.584,0.401,5.127,1.202c1.094,0.586,2.085,1.557,2.974,2.914c0.889,1.358,1.333,2.75,1.333,4.176v15.498h2.08
		c0.586,0,1.006,0.112,1.26,0.336c0.254,0.225,0.381,0.523,0.381,0.895c0,0.352-0.127,0.645-0.381,0.879s-0.674,0.352-1.26,0.352
		h-6.592c-0.605,0-1.035-0.117-1.289-0.352s-0.381-0.527-0.381-0.879c0-0.371,0.127-0.67,0.381-0.895
		c0.254-0.224,0.684-0.336,1.289-0.336h2.051V30.469c0-1.738-0.635-3.209-1.904-4.41s-2.969-1.801-5.098-1.801
		c-1.622,0-3.028,0.326-4.219,0.98c-1.191,0.655-2.891,2.281-5.098,4.879v15.439h2.783c0.586,0,1.006,0.112,1.26,0.336
		c0.253,0.225,0.381,0.523,0.381,0.895c0,0.352-0.127,0.645-0.381,0.879c-0.254,0.234-0.674,0.352-1.26,0.352h-8.027
		c-0.586,0-1.006-0.117-1.26-0.352c-0.254-0.234-0.381-0.527-0.381-0.879c0-0.371,0.127-0.67,0.381-0.895
		c0.253-0.224,0.674-0.336,1.26-0.336h2.783v-20.42h-2.08c-0.586,0-1.006-0.117-1.26-0.352c-0.254-0.234-0.381-0.537-0.381-0.908
		c0-0.352,0.127-0.645,0.381-0.879c0.253-0.234,0.674-0.352,1.26-0.352H190.078z"/>
	<path d="M242.314,27.159v-4.512h5.771c0.586,0,1.006,0.117,1.26,0.352s0.381,0.537,0.381,0.908c0,0.352-0.127,0.645-0.381,0.879
		s-0.674,0.352-1.26,0.352h-3.311v24.58c0,1.641-0.352,3.105-1.055,4.395c-0.469,0.859-1.25,1.747-2.344,2.666
		c-1.094,0.918-2.09,1.571-2.988,1.963c-0.898,0.391-2.1,0.586-3.604,0.586h-6.973c-0.586,0-1.006-0.113-1.26-0.338
		s-0.381-0.522-0.381-0.893c0-0.371,0.127-0.674,0.381-0.908s0.674-0.352,1.26-0.352l7.061,0.029c1.445,0,2.749-0.371,3.911-1.113
		c1.162-0.743,2.124-1.827,2.886-3.252c0.43-0.82,0.645-1.865,0.645-3.135v-7.383c-2.637,3.613-6.035,5.42-10.195,5.42
		c-3.379,0-6.294-1.256-8.745-3.766c-2.451-2.509-3.677-5.531-3.677-9.066s1.226-6.553,3.677-9.053s5.366-3.75,8.745-3.75
		C236.279,21.768,239.678,23.565,242.314,27.159z M242.314,34.571c0-2.891-0.991-5.332-2.974-7.324s-4.351-2.988-7.104-2.988
		s-5.117,1-7.09,3.002c-1.973,2.003-2.959,4.439-2.959,7.311c0,2.891,0.986,5.336,2.959,7.338c1.973,2.003,4.336,3.004,7.09,3.004
		s5.122-1.001,7.104-3.004C241.323,39.907,242.314,37.461,242.314,34.571z"/>
</g>
<g>
	<path d="M288.762,21.152v20.596c1.27,0,2.207,0.283,2.812,0.85s0.908,1.289,0.908,2.168s-0.308,1.596-0.923,2.152
		s-1.646,0.836-3.091,0.836h-5.713v-1.377c-1.719,0.781-3.359,1.367-4.922,1.758s-3.047,0.586-4.453,0.586
		c-1.973,0-3.682-0.416-5.127-1.246c-1.446-0.83-2.588-1.977-3.428-3.441c-0.605-1.055-0.908-2.373-0.908-3.955v-12.92h-1.025
		c-1.446,0-2.476-0.279-3.091-0.836s-0.923-1.283-0.923-2.182c0-0.879,0.308-1.598,0.923-2.154c0.615-0.557,1.645-0.835,3.091-0.835
		h7.031v17.872c0,1.27,0.308,2.201,0.923,2.797c0.615,0.597,1.558,0.895,2.827,0.895c1.211,0,2.515-0.239,3.911-0.719
		c1.396-0.479,3.12-1.342,5.171-2.592V27.159h-2.168c-1.445,0-2.476-0.279-3.091-0.836s-0.923-1.283-0.923-2.182
		c0-0.879,0.308-1.598,0.923-2.154c0.615-0.557,1.646-0.835,3.091-0.835H288.762z"/>
	<path d="M305.93,21.152v2.022c1.094-0.938,2.3-1.641,3.618-2.11s2.749-0.703,4.292-0.703c3.555,0,6.367,1.104,8.438,3.311
		c1.641,1.758,2.461,4.062,2.461,6.914v11.162c1.27,0,2.207,0.277,2.812,0.834s0.908,1.285,0.908,2.184
		c0,0.879-0.308,1.596-0.923,2.152s-1.646,0.836-3.091,0.836h-5.42c-1.445,0-2.476-0.279-3.091-0.836s-0.923-1.283-0.923-2.182
		c0-0.879,0.303-1.598,0.908-2.154s1.543-0.834,2.812-0.834V30.411c0-1.309-0.352-2.266-1.055-2.871
		c-0.918-0.781-2.295-1.172-4.131-1.172c-1.387,0-2.604,0.268-3.647,0.805c-1.045,0.538-2.368,1.676-3.97,3.414v11.162
		c1.543,0,2.539,0.146,2.988,0.439c0.957,0.586,1.436,1.445,1.436,2.578c0,0.879-0.308,1.596-0.923,2.152s-1.646,0.836-3.091,0.836
		h-6.826c-1.445,0-2.476-0.279-3.091-0.836s-0.923-1.283-0.923-2.182c0-1.094,0.469-1.943,1.406-2.549
		c0.469-0.293,1.475-0.439,3.018-0.439v-14.59c-1.27,0-2.207-0.283-2.812-0.85s-0.908-1.289-0.908-2.168s0.308-1.598,0.923-2.154
		c0.615-0.557,1.646-0.835,3.091-0.835H305.93z"/>
	<path d="M350.988,21.152v20.596h7.207c1.445,0,2.476,0.277,3.091,0.834s0.923,1.285,0.923,2.184c0,0.879-0.308,1.596-0.923,2.152
		s-1.646,0.836-3.091,0.836h-20.42c-1.445,0-2.476-0.279-3.091-0.836s-0.923-1.283-0.923-2.182c0-0.879,0.308-1.598,0.923-2.154
		s1.646-0.834,3.091-0.834h7.207v-14.59h-4.834c-1.426,0-2.451-0.279-3.076-0.836s-0.938-1.283-0.938-2.182
		c0-0.879,0.308-1.598,0.923-2.154c0.615-0.557,1.646-0.835,3.091-0.835H350.988z M350.168,9.756v6.357h-7.148V9.756H350.168z"/>
	<path d="M379.084,37.764v9.99h-7.031c-1.445,0-2.476-0.279-3.091-0.836s-0.923-1.283-0.923-2.182c0-0.879,0.312-1.598,0.938-2.154
		s1.65-0.834,3.076-0.834h1.025V15.762h-1.025c-1.445,0-2.476-0.278-3.091-0.835s-0.923-1.284-0.923-2.183
		c0-0.879,0.308-1.597,0.923-2.153s1.646-0.835,3.091-0.835h7.031V30l4.688-3.779c-0.488-0.84-0.732-1.523-0.732-2.051
		c0-0.898,0.303-1.627,0.908-2.183c0.605-0.557,1.631-0.835,3.076-0.835h6.855c1.445,0,2.476,0.278,3.091,0.835
		c0.615,0.556,0.923,1.285,0.923,2.183c0,0.879-0.308,1.596-0.923,2.152s-1.646,0.836-3.091,0.836h-1.67l-7.295,5.918l9.814,8.672
		h1.758c1.445,0,2.476,0.277,3.091,0.834s0.923,1.285,0.923,2.184c0,0.879-0.308,1.596-0.923,2.152s-1.646,0.836-3.091,0.836h-6.914
		c-1.445,0-2.476-0.279-3.091-0.836s-0.923-1.283-0.923-2.182c0-0.762,0.332-1.514,0.996-2.256l-6.357-5.625L379.084,37.764z"/>
</g>
</svg>
